<!-- icon666.com - MILLIONS vector ICONS FREE --><svg viewBox="0 0 512.00032 512" xmlns="http://www.w3.org/2000/svg"><path d="m49.78125 398.589844c-25.945312 25.941406-43.746094 59.796875-49.589844 96.023437-.777344 4.816407.847656 9.726563 4.335938 13.125 5.71875 5.570313 10.609375 4.484375 17.195312 3.265625 34.542969-6.460937 65.917969-23.011718 90.746094-47.839844l122.320312-122.320312-63.632812-63.632812zm0 0"></path><path d="m421.546875 180c49.628906 0 90-40.371094 90-90s-40.371094-90-90-90-90 40.371094-90 90 40.371094 90 90 90zm0-135c8.289063 0 15 6.710938 15 15 0 8.292969-6.710937 15-15 15-8.277344 0-15 6.722656-15 15 0 8.292969-6.710937 15-15 15-8.292969 0-15-6.707031-15-15 0-24.816406 20.183594-45 45-45zm0 0"></path><path d="m375.03125 200.601562c-28.605469-12.078124-51.550781-34.953124-63.789062-63.476562l-34.03125 34.03125 63.632812 63.632812zm0 0"></path><path d="m90 180c49.628906 0 90-40.371094 90-90s-40.371094-90-90-90-90 40.371094-90 90 40.371094 90 90 90zm0-135c24.8125 0 45 20.1875 45 45 0 8.292969-6.707031 15-15 15-8.289062 0-15-6.707031-15-15 0-8.277344-6.722656-15-15-15-8.289062 0-15-6.707031-15-15 0-8.289062 6.710938-15 15-15zm0 0"></path><path d="m468.582031 404.949219-268.117187-268.117188c-12.15625 28.558594-35.074219 51.476563-63.632813 63.632813l267.632813 267.632812c21.679687 21.679688 49.074218 36.109375 79.207031 41.691406 9.289063 1.722657 16.59375 4.632813 23.523437-1.789062 3.484376-3.234375 5.230469-7.910156 4.71875-12.625-3.707031-34.085938-19.101562-66.195312-43.332031-90.425781zm0 0"></path></svg>