<!-- icon666.com - MILLIONS vector ICONS FREE --><svg id="icons" enable-background="new 0 0 64 64" viewBox="0 0 64 64" xmlns="http://www.w3.org/2000/svg"><g><g><path d="m3 56.5c-.55 0-1-.45-1-1v-24c0-.55.45-1 1-1s1 .45 1 1v24c0 .55-.45 1-1 1z"></path></g><g><path d="m6 56.5c-.55 0-1-.45-1-1v-22c0-.55.45-1 1-1s1 .45 1 1v22c0 .55-.45 1-1 1z"></path></g><g><path d="m3 32.5c-.43 0-.83-.29-.96-.73l-2-7c-.15-.53.16-1.08.69-1.24.53-.15 1.08.15 1.24.69l2 7c.15.53-.16 1.08-.69 1.24-.1.03-.19.04-.28.04z"></path></g><g><path d="m30 56.5c-.54 0-.98-.43-1-.97-.02-.55.42-1.01.97-1.03l33-1c.55.01 1.01.42 1.03.97s-.42 1.01-.97 1.03l-33 1c-.01 0-.02 0-.03 0z"></path></g><g><path d="m30 56.5c-.29 0-.59-.13-.79-.38l-19-24c-.34-.43-.27-1.06.16-1.4s1.06-.27 1.41.16l19 24c.34.43.27 1.06-.16 1.41-.18.14-.4.21-.62.21z"></path></g><g><path d="m6 56.5h-3c-.55 0-1-.45-1-1s.45-1 1-1h3c.55 0 1 .45 1 1s-.45 1-1 1z"></path></g><g><path d="m6 34.5c-.4 0-.77-.24-.93-.63-.21-.51.04-1.09.56-1.3l5-2c.51-.2 1.09.04 1.3.56s-.04 1.09-.56 1.3l-5 2c-.12.05-.25.07-.37.07z"></path></g><g><path d="m63 55.5c-.55 0-1-.45-1-1 0-2.64-1.76-5-4.29-5.75-.53-.16-.83-.71-.67-1.24s.71-.83 1.24-.67c3.36 1 5.71 4.15 5.71 7.67.01.54-.44.99-.99.99z"></path></g><g><path d="m1 21.5c-.17 0-.34-.04-.5-.14-.48-.27-.64-.89-.36-1.36l7-12c.28-.48.89-.64 1.36-.36.48.27.64.89.36 1.36l-7 12c-.18.32-.52.5-.86.5z"></path></g><g><path d="m11 32.5c-.2 0-.4-.06-.57-.18l-10-7c-.45-.32-.56-.94-.25-1.39.32-.45.94-.56 1.39-.25l10 7c.45.32.56.94.25 1.39-.19.28-.51.43-.82.43z"></path></g><g><path d="m1 25.5c-.55 0-1-.45-1-1v-4c0-.55.45-1 1-1s1 .45 1 1v4c0 .55-.45 1-1 1z"></path></g><g><path d="m34 41.5c-.29 0-.58-.13-.78-.37l-26-32c-.34-.43-.28-1.06.15-1.41.43-.34 1.06-.28 1.41.15l26 32c.35.43.28 1.06-.15 1.41-.18.15-.41.22-.63.22z"></path></g><g><path d="m58.25 48.87c-.1 0-.19-.01-.29-.04l-24.25-7.37c-.53-.16-.83-.72-.67-1.25s.72-.83 1.25-.67l24.25 7.37c.53.16.83.72.67 1.25-.13.43-.53.71-.96.71z"></path></g></g></svg>